<svg width="187" height="21" viewBox="0 0 187 21" fill="none" xmlns="http://www.w3.org/2000/svg">
<path d="M42.7393 7.46348C42.7393 8.90504 42.3946 10.1335 41.7114 11.1614C41.0471 12.2144 40.0881 13.0104 38.8346 13.5807C37.6061 14.126 36.1207 14.4018 34.4096 14.4018H31.6957C31.0564 14.4018 30.555 14.9032 30.555 15.5425V19.6729H26.1049V15.1539C26.1049 12.7158 28.0855 10.754 30.5299 10.754L34.1589 10.7728C35.5252 10.7728 36.5531 10.5033 37.2175 9.90787C37.9007 9.31244 38.2454 8.51645 38.2454 7.46348C38.2454 6.41051 37.9007 5.59571 37.2175 5.00028C36.5531 4.42992 35.5252 4.13534 34.1589 4.13534L29.6399 4.11653C29.6399 4.11653 29.6148 4.1228 29.6023 4.1228C28.6684 4.07893 28.3675 4.58034 28.3675 4.58034L28.1482 4.84358C26.412 7.05608 21.1534 13.7562 18.9347 16.5015C18.709 16.8462 18.4333 17.1658 18.1637 17.4604C17.888 17.7362 17.5934 18.0057 17.2925 18.2564C17.023 18.4883 16.7222 18.6952 16.4276 18.8769C15.8823 19.2154 15.2869 19.4912 14.6476 19.7419C13.394 20.2433 12.0026 20.494 10.5172 20.494C10.2414 20.494 9.97188 20.494 9.71491 20.4752C8.48644 20.4062 7.36453 20.1555 6.29275 19.7419C5.01415 19.2655 3.8985 18.5573 2.96461 17.6673C2.03073 16.7773 1.29741 15.7243 0.770925 14.5146C0.250707 13.305 0 12.0075 0 10.566C0 9.12441 0.250707 7.83327 0.770925 6.64241C1.29741 5.43275 2.03073 4.38604 2.98342 3.49603C3.92357 2.58095 5.03922 1.89777 6.31782 1.39636C7.13889 1.07671 8.0289 0.869873 8.94398 0.782126C9.08187 0.757055 9.2135 0.713181 9.37645 0.713181C9.73998 0.68811 10.1286 0.66304 10.4921 0.66304C12.0026 0.66304 13.394 0.913747 14.6476 1.39636C15.9262 1.89777 17.023 2.58095 17.9569 3.49603C18.1637 3.70287 18.3894 3.9285 18.5711 4.13534C18.6401 4.22308 18.709 4.29203 18.778 4.38604C18.9159 4.54274 19.0287 4.68062 19.1415 4.84358L19.1227 4.86239L16.3336 8.40363C15.4749 6.05951 13.1872 4.37978 10.5046 4.37978C7.07621 4.37978 4.29963 7.11249 4.29963 10.4782C4.29963 11.5751 4.59421 12.6092 5.11443 13.4993C5.18964 13.6371 5.27112 13.7688 5.35887 13.9004C6.31782 15.3608 7.89101 16.4075 9.73998 16.6394C9.99069 16.6644 10.2414 16.6644 10.4921 16.6644C11.7018 16.6644 12.8676 16.3197 13.8704 15.6553C14.0521 15.5237 14.2339 15.4046 14.3969 15.2667C14.5786 15.11 14.7604 14.9471 14.9422 14.7653C15.0111 14.6964 15.1929 14.4707 15.2054 14.4582C15.3057 14.3266 15.431 14.1699 15.5689 13.9944C15.594 13.9568 15.6191 13.9255 15.6441 13.8941C16.7159 12.5403 18.6025 10.1335 20.4891 7.71418C22.0184 5.77747 23.5226 3.85956 24.5944 2.4932C25.6035 1.2334 27.1077 0.506348 28.706 0.506348H34.4096C36.1207 0.506348 37.6061 0.800929 38.8346 1.37129C40.0881 1.92284 41.0471 2.69377 41.7114 3.74674C42.3946 4.79344 42.7393 6.02818 42.7393 7.46348Z" fill="#FFC72C"/>
<path d="M146.147 0.89502V4.52401H152.29V20.0616H156.715V4.52401H162.851V0.89502H146.147Z" fill="#FFC72C"/>
<path d="M136.657 0.89502V12.5341L127.118 0.89502H123.464V20.0616H127.845V8.44758L137.384 20.0616H141.038V0.89502H136.657Z" fill="#FFC72C"/>
<path d="M110.164 0.89502H105.783L97.2217 20.0616H101.791L103.502 15.9563L104.893 12.6031L107.927 5.27613L110.986 12.6031L112.352 15.9563L114.063 20.0616H118.72L110.164 0.89502Z" fill="#FFC72C"/>
<path d="M176.407 0.89502H172.026L163.471 20.0616H168.034L169.745 15.9563L171.136 12.6031L174.17 5.27613L177.228 12.6031L178.601 15.9563L180.312 20.0616H184.963L176.407 0.89502Z" fill="#FFC72C"/>
<path d="M93.407 0.89502L87.4715 14.5899L81.6551 0.89502H76.8604L85.1212 20.0616H89.5023L97.8132 0.89502H93.407Z" fill="#FFC72C"/>
<path d="M72.1603 0.89502H67.7354V20.0616H72.1603V0.89502Z" fill="#FFC72C"/>
<path d="M45.8984 0.89502V4.52401H52.0345V20.0616H56.4846V4.52401H62.6018V0.89502H45.8984Z" fill="#FFC72C"/>
</svg>
