<svg xmlns="http://www.w3.org/2000/svg" width="57" height="56" viewBox="0 0 57 56" fill="none">
  <path d="M28.5 18.6667C24.6337 18.6667 21.5 20.755 21.5 23.3333C21.5 25.9117 24.6337 28 28.5 28C32.3663 28 35.5 30.0883 35.5 32.6667C35.5 35.245 32.3663 37.3333 28.5 37.3333M28.5 18.6667V37.3333M28.5 18.6667C31.09 18.6667 33.3533 19.6047 34.5643 21M28.5 18.6667V16.3333M28.5 37.3333V39.6667M28.5 37.3333C25.91 37.3333 23.6467 36.3953 22.4357 35M49.5 28C49.5 30.7578 48.9568 33.4885 47.9015 36.0364C46.8461 38.5842 45.2993 40.8992 43.3492 42.8492C41.3992 44.7993 39.0842 46.3461 36.5364 47.4015C33.9885 48.4568 31.2578 49 28.5 49C25.7422 49 23.0115 48.4568 20.4636 47.4015C17.9158 46.3461 15.6008 44.7993 13.6508 42.8492C11.7007 40.8992 10.1539 38.5842 9.09853 36.0364C8.04318 33.4885 7.5 30.7578 7.5 28C7.5 22.4305 9.71249 17.089 13.6508 13.1508C17.589 9.21249 22.9305 7 28.5 7C34.0695 7 39.411 9.21249 43.3492 13.1508C47.2875 17.089 49.5 22.4305 49.5 28Z" stroke="url(#paint0_linear_210_419)" stroke-width="3.5" stroke-linecap="square"/>
  <defs>
    <linearGradient id="paint0_linear_210_419" x1="85" y1="-20" x2="-9.0237" y2="-9.79077" gradientUnits="userSpaceOnUse">
      <stop stop-color="#FFD500"/>
      <stop offset="1" stop-color="#FF9D00"/>
    </linearGradient>
  </defs>
</svg>