
<svg xmlns="http://www.w3.org/2000/svg" width="56" height="56" viewBox="0 0 56 56" fill="none">
    <path d="M19.3003 28.7779L24.7448 34.2223L37.967 22.5557M49.0078 28C49.0078 30.7578 48.4646 33.4885 47.4093 36.0364C46.3539 38.5842 44.8071 40.8992 42.8571 42.8492C40.907 44.7993 38.592 46.3461 36.0442 47.4015C33.4963 48.4568 30.7656 49 28.0078 49C25.2501 49 22.5193 48.4568 19.9715 47.4015C17.4236 46.3461 15.1086 44.7993 13.1586 42.8492C11.2085 40.8992 9.66169 38.5842 8.60634 36.0364C7.55099 33.4885 7.00781 30.7578 7.00781 28C7.00781 22.4305 9.22031 17.089 13.1586 13.1508C17.0968 9.21249 22.4383 7 28.0078 7C33.5774 7 38.9188 9.21249 42.8571 13.1508C46.7953 17.089 49.0078 22.4305 49.0078 28Z" stroke="url(#paint0_linear_210_424)" stroke-width="3.5" stroke-linecap="square" />
    <defs>
        <linearGradient id="paint0_linear_210_424" x1="84.5078" y1="-20" x2="-9.51588" y2="-9.79077" gradientUnits="userSpaceOnUse">
            <stop stop-color="#FFD500" />
            <stop offset="1" stop-color="#FF9D00" />
        </linearGradient>
    </defs>
</svg>

