
    <svg
      xmlns="http://www.w3.org/2000/svg"
      width="57"
      height="56"
      viewBox="0 0 57 56"
      fill="none"
    >
      <path
        fill-rule="evenodd"
        clip-rule="evenodd"
        d="M28.5006 9.00257C23.4621 9.00257 18.63 11.0041 15.0673 14.5668C11.5046 18.1295 9.50306 22.9616 9.50306 28.0001C9.50306 30.4949 9.99444 32.9652 10.9492 35.2701C11.2514 35.9998 11.5982 36.7084 11.9871 37.3921C16.8391 34.6081 22.7069 32.995 29 32.995C34.9669 32.995 40.5504 34.4451 45.2483 36.9676C45.5435 36.4164 45.8118 35.8499 46.052 35.2701C47.0067 32.9652 47.4981 30.4949 47.4981 28.0001C47.4981 22.9616 45.4965 18.1295 41.9338 14.5668C38.3711 11.0041 33.539 9.00257 28.5006 9.00257ZM15.0673 41.4333C14.8184 41.1845 14.5769 40.9291 14.3428 40.6674C18.4996 38.3664 23.5405 37.005 29 37.005C34.1639 37.005 38.9543 38.223 42.9762 40.3029C42.6447 40.693 42.297 41.0702 41.9338 41.4333C40.1697 43.1974 38.0755 44.5967 35.7706 45.5515C33.4657 46.5062 30.9953 46.9976 28.5006 46.9976C26.0058 46.9976 23.5354 46.5062 21.2305 45.5515C18.9256 44.5967 16.8314 43.1974 15.0673 41.4333ZM12.2353 11.7348C16.5491 7.42103 22.3999 4.99756 28.5006 4.99756C34.6012 4.99756 40.452 7.42103 44.7658 11.7348C49.0796 16.0486 51.5031 21.8994 51.5031 28.0001C51.5031 31.0208 50.9081 34.0119 49.7521 36.8027C48.5961 39.5935 46.9018 42.1293 44.7658 44.2653C42.6298 46.4013 40.094 48.0956 37.3032 49.2516C34.5124 50.4076 31.5213 51.0026 28.5006 51.0026C25.4798 51.0026 22.4887 50.4076 19.6979 49.2516C16.9071 48.0956 14.3713 46.4013 12.2353 44.2653C10.0993 42.1293 8.40499 39.5935 7.24901 36.8027C6.09302 34.0119 5.49805 31.0208 5.49805 28.0001C5.49805 21.8994 7.92152 16.0486 12.2353 11.7348ZM33.99 22C33.99 24.7559 31.7559 26.99 29 26.99C26.2441 26.99 24.01 24.7559 24.01 22C24.01 19.2441 26.2441 17.01 29 17.01C31.7559 17.01 33.99 19.2441 33.99 22ZM38 22C38 26.9706 33.9706 31 29 31C24.0294 31 20 26.9706 20 22C20 17.0294 24.0294 13 29 13C33.9706 13 38 17.0294 38 22Z"
        fill="url(#paint0_linear_210_429)"
      />
      <defs>
        <linearGradient
          id="paint0_linear_210_429"
          x1="90.3883"
          y1="-24.5771"
          x2="-12.6013"
          y2="-13.3943"
          gradientUnits="userSpaceOnUse"
        >
          <stop stop-color="#FFD500" />
          <stop offset="1" stop-color="#FF9D00" />
        </linearGradient>
      </defs>
    </svg>

